<svg width="245" height="52" viewBox="0 0 245 52" fill="none" xmlns="http://www.w3.org/2000/svg">
<mask id="mask0_413_194" style="mask-type:luminance" maskUnits="userSpaceOnUse" x="0" y="4" width="42" height="42">
<path d="M19.9272 45.5436C19.569 45.5436 19.5689 45.5436 19.3898 45.3645H19.2107C19.0316 45.3645 19.0316 45.3644 18.8525 45.1853C18.8525 45.1853 18.8524 45.1853 18.6733 45.1853C18.4942 45.1853 18.3151 45.0061 18.136 45.0061C16.5239 44.1102 15.6282 42.4977 15.6282 40.7059C15.6282 38.0183 17.7777 35.8683 20.4646 35.8683C23.1514 35.8683 25.3009 38.0183 25.3009 40.7059C25.3009 42.4977 24.2262 44.1102 22.7932 45.0061C22.614 45.0061 22.4349 45.1853 22.2558 45.1853C22.2558 45.1853 22.2558 45.1853 22.0767 45.1853C21.8975 45.1853 21.8976 45.1853 21.7184 45.3645H21.5393C21.3602 45.3645 21.3602 45.3645 21.1811 45.3645H21.0019C20.8228 45.3645 20.6437 45.3645 20.4646 45.3645C20.2854 45.5436 20.1063 45.5436 19.9272 45.5436ZM5.23908 29.7764C5.23908 21.3553 12.0458 14.3675 20.6437 14.3675C29.0625 14.3675 36.0483 21.1761 36.0483 29.7764C36.0483 36.585 31.5702 42.4977 25.3009 44.4686C28.5251 42.856 30.8537 39.2726 30.8537 35.3308C30.8537 29.5972 26.1965 25.1179 20.6437 25.1179C14.9117 25.1179 10.4337 29.7764 10.4337 35.3308C10.4337 39.2726 12.7623 42.6769 15.9865 44.4686C9.71716 42.4977 5.23908 36.585 5.23908 29.7764ZM0.223633 25.2971C0.223633 36.585 9.35892 45.7228 20.6437 45.7228C31.9285 45.7228 41.0637 36.585 41.0637 25.2971C41.0637 14.0092 31.9285 4.87134 20.6437 4.87134C9.35892 4.87134 0.223633 14.1884 0.223633 25.2971Z" fill="white"/>
</mask>
<g mask="url(#mask0_413_194)">
<path d="M0.223175 3.97559L41.9589 5.05064L40.8842 46.6188L-0.851562 45.7229L0.223175 3.97559Z" fill="url(#paint0_linear_413_194)"/>
</g>
<mask id="mask1_413_194" style="mask-type:luminance" maskUnits="userSpaceOnUse" x="54" y="31" width="25" height="14">
<path d="M57.1848 40.7059C57.1848 40.3476 57.3639 40.1684 57.543 39.81C57.9013 39.2725 58.2595 38.735 58.6177 38.3767C59.3342 37.4808 60.2299 36.585 61.1255 35.6891C61.3046 35.5099 61.6628 35.1516 61.842 34.9724C62.0211 34.7932 62.2002 34.4349 62.5584 34.614C62.9167 34.614 62.9167 35.1515 62.9167 35.3307C62.9167 35.5099 62.9167 35.8683 62.9167 36.0474C62.9167 36.2266 62.9167 36.2266 62.9167 36.4058C62.9167 36.5849 62.7376 36.5849 62.7376 36.7641C62.3793 37.1225 62.2002 37.3016 61.842 37.66C61.4837 38.0183 61.3046 38.3767 60.9464 38.5558C60.2299 39.0934 59.5134 39.6309 58.7969 40.1684C58.4386 40.3476 58.0804 40.7059 57.7221 40.8851C57.543 40.8851 57.3639 41.0643 57.1848 41.0643C57.1848 40.8851 57.1848 40.8851 57.1848 40.7059ZM61.1255 32.1056C60.5881 32.2848 60.2298 32.6431 59.8716 32.8223C59.5134 33.1807 58.976 33.539 58.6177 33.8974C57.9012 34.7932 57.1848 35.6891 56.6474 36.585C55.9309 37.66 55.3935 38.735 55.0353 39.81C54.8562 40.3476 54.677 40.8851 54.4979 41.4226C54.4979 41.781 54.3188 42.3185 54.677 42.4976C55.0353 42.6768 55.0353 42.6768 55.2144 43.0352C55.2144 43.2143 55.3935 43.3935 55.3935 43.5727C55.5726 44.1102 55.9309 44.2894 56.4683 44.2894C57.543 44.4685 58.6177 43.5727 59.3342 43.0352C60.409 42.3185 61.4837 41.6018 62.3793 40.5268C63.0958 39.6309 63.9914 38.735 64.8871 38.0183C64.8871 38.735 64.8871 39.6309 64.8871 40.3476C64.8871 40.7059 64.8871 41.2434 65.0662 41.6018C65.2453 42.1393 65.6035 42.856 66.1409 43.2143C66.8574 43.5727 67.753 43.7519 68.4695 43.5727H68.6486C69.9025 43.2143 70.7981 42.4977 71.8729 41.781C72.9476 41.0643 74.0223 40.3476 74.918 39.6309C75.4553 39.2725 75.9927 38.735 76.351 38.1975C76.8883 37.4808 77.4257 36.585 77.7839 35.6891C77.9631 35.3307 77.9631 35.1516 78.1422 34.7932C78.1422 34.4349 78.3213 34.2557 78.3213 33.8974C78.3213 33.7182 78.3213 33.3598 78.1422 33.1806H77.9631C77.0674 34.614 75.6345 35.8683 74.2015 36.9433C72.9476 38.0183 71.6937 39.0934 70.0816 39.81C69.5443 39.9892 69.186 40.1684 68.6486 40.3476C68.2904 40.5267 67.9322 40.5267 67.5739 40.7059C67.3948 40.7059 67.0365 40.8851 66.8574 40.7059C66.4992 40.7059 66.4992 40.5268 66.4992 40.1684C66.4992 39.6309 66.8574 39.4517 67.0365 39.0934C67.3948 38.735 67.2157 38.0183 67.2157 37.66C67.2157 37.3016 67.2157 36.9433 67.2157 36.4058C67.2157 36.0474 67.2157 35.6891 67.0365 35.3307C66.8574 34.9724 66.32 34.7932 65.9618 34.7932C65.6035 34.7932 65.0662 34.9724 64.7079 34.9724V34.7932C64.7079 34.4349 64.8871 34.0765 64.8871 33.7182C64.8871 33.3598 64.8871 33.0015 64.7079 32.8223C64.5288 32.6431 64.3497 32.464 64.1706 32.2848C63.8123 32.1056 63.4541 31.9264 63.0958 31.7473C62.7376 31.5681 62.3793 31.3889 61.842 31.3889C61.6628 31.3889 61.4837 31.3889 61.3046 31.3889C61.3046 31.9264 61.3046 31.9265 61.1255 32.1056Z" fill="white"/>
</mask>
<g mask="url(#mask1_413_194)">
<path d="M54.3188 31.3889L78.6795 32.1056L78.5004 45.3644L54.1396 44.8269L54.3188 31.3889Z" fill="url(#paint1_linear_413_194)"/>
</g>
<mask id="mask2_413_194" style="mask-type:luminance" maskUnits="userSpaceOnUse" x="137" y="31" width="25" height="14">
<path d="M140.657 40.7059C140.657 40.3476 140.836 40.1684 141.015 39.81C141.373 39.2725 141.731 38.735 142.09 38.3767C142.806 37.4808 143.702 36.585 144.597 35.6891C144.776 35.5099 145.135 35.1516 145.314 34.9724C145.493 34.7932 145.672 34.4349 146.03 34.614C146.389 34.614 146.389 35.1515 146.389 35.3307C146.389 35.5099 146.389 35.8683 146.389 36.0474C146.389 36.2266 146.389 36.2266 146.389 36.4058C146.389 36.5849 146.209 36.5849 146.209 36.7641C145.851 37.1225 145.672 37.3016 145.314 37.66C144.956 38.0183 144.776 38.3767 144.418 38.5558C143.702 39.0934 142.985 39.6309 142.269 40.1684C141.91 40.3476 141.552 40.7059 141.194 40.8851C141.015 40.8851 140.836 41.0643 140.657 41.0643C140.657 40.8851 140.657 40.8851 140.657 40.7059ZM144.597 32.1056C144.06 32.2848 143.702 32.6431 143.343 32.8223C142.985 33.1807 142.448 33.539 142.09 33.8974C141.373 34.7932 140.657 35.6891 140.119 36.585C139.403 37.66 138.865 38.735 138.507 39.81C138.328 40.3476 138.149 40.8851 137.97 41.4226C137.97 41.781 137.791 42.3185 138.149 42.4976C138.507 42.6768 138.507 42.6768 138.686 43.0352C138.686 43.2143 138.865 43.3935 138.865 43.5727C139.044 44.1102 139.403 44.2894 139.94 44.2894C141.015 44.4685 142.09 43.5727 142.806 43.0352C143.881 42.3185 144.956 41.6018 145.851 40.5268C146.568 39.6309 147.463 38.735 148.359 38.0183C148.359 38.735 148.359 39.6309 148.359 40.3476C148.359 40.7059 148.359 41.2434 148.538 41.6018C148.717 42.1393 149.075 42.856 149.613 43.2143C150.329 43.5727 151.225 43.7519 151.941 43.5727H152.12C153.374 43.2143 154.27 42.4977 155.345 41.781C156.419 41.0643 157.494 40.3476 158.39 39.6309C158.927 39.2725 159.465 38.735 159.823 38.1975C160.36 37.4808 160.897 36.585 161.256 35.6891C161.435 35.3307 161.435 35.1516 161.614 34.7932C161.614 34.4349 161.793 34.2557 161.793 33.8974C161.793 33.7182 161.793 33.3598 161.614 33.1806H161.435C160.539 34.614 159.106 35.8683 157.673 36.9433C156.419 38.0183 155.166 39.0934 153.553 39.81C153.016 39.9892 152.658 40.1684 152.12 40.3476C151.762 40.5267 151.404 40.5267 151.046 40.7059C150.867 40.7059 150.508 40.8851 150.329 40.7059C149.971 40.7059 149.971 40.5268 149.971 40.1684C149.971 39.6309 150.329 39.4517 150.508 39.0934C150.867 38.735 150.687 38.0183 150.687 37.66C150.687 37.3016 150.687 36.9433 150.687 36.4058C150.687 36.0474 150.687 35.6891 150.508 35.3307C150.329 34.9724 149.792 34.7932 149.434 34.7932C149.075 34.7932 148.538 34.9724 148.18 34.9724V34.7932C148.18 34.4349 148.359 34.0765 148.359 33.7182C148.359 33.3598 148.359 33.0015 148.18 32.8223C148.001 32.6431 147.821 32.464 147.642 32.2848C147.284 32.1056 146.926 31.9264 146.568 31.7473C146.209 31.5681 145.851 31.3889 145.314 31.3889C145.135 31.3889 144.956 31.3889 144.776 31.3889C144.776 31.9264 144.776 31.9265 144.597 32.1056Z" fill="white"/>
</mask>
<g mask="url(#mask2_413_194)">
<path d="M137.791 31.3889L162.152 32.1056L161.794 45.3644L137.433 44.8269L137.791 31.3889Z" fill="url(#paint2_linear_413_194)"/>
</g>
<mask id="mask3_413_194" style="mask-type:luminance" maskUnits="userSpaceOnUse" x="220" y="31" width="25" height="14">
<path d="M223.053 40.7059C223.053 40.3476 223.232 40.1684 223.411 39.81C223.769 39.2725 224.128 38.735 224.486 38.3767C225.202 37.4808 226.098 36.585 226.994 35.6891C227.173 35.5099 227.531 35.1516 227.71 34.9724C227.889 34.7932 228.068 34.4349 228.427 34.614C228.785 34.614 228.785 35.1515 228.785 35.3307C228.785 35.5099 228.785 35.8683 228.785 36.0474C228.785 36.2266 228.785 36.2266 228.785 36.4058C228.785 36.5849 228.606 36.5849 228.606 36.7641C228.247 37.1225 228.068 37.3016 227.71 37.66C227.352 38.0183 227.173 38.3767 226.815 38.5558C226.098 39.0934 225.382 39.6309 224.665 40.1684C224.307 40.3476 223.949 40.7059 223.59 40.8851C223.411 40.8851 223.232 41.0643 223.053 41.0643C223.053 40.8851 223.053 40.8851 223.053 40.7059ZM226.994 32.1056C226.456 32.2848 226.098 32.6431 225.74 32.8223C225.382 33.1807 224.844 33.539 224.486 33.8974C223.769 34.7932 223.053 35.6891 222.516 36.585C221.799 37.66 221.262 38.735 220.903 39.81C220.724 40.3476 220.545 40.8851 220.366 41.4226C220.366 41.781 220.187 42.3185 220.545 42.4976C220.903 42.6768 220.903 42.6768 221.083 43.0352C221.083 43.2143 221.262 43.3935 221.262 43.5727C221.441 44.1102 221.799 44.2894 222.336 44.2894C223.411 44.4685 224.486 43.5727 225.202 43.0352C226.277 42.3185 227.352 41.6018 228.247 40.5268C228.964 39.6309 229.86 38.735 230.755 38.0183C230.755 38.735 230.755 39.6309 230.755 40.3476C230.755 40.7059 230.755 41.2434 230.934 41.6018C231.113 42.1393 231.472 42.856 232.009 43.2143C232.726 43.5727 233.621 43.7519 234.338 43.5727H234.517C235.771 43.2143 236.666 42.4977 237.741 41.781C238.816 41.0643 239.891 40.3476 240.786 39.6309C241.323 39.2725 241.861 38.735 242.219 38.1975C242.756 37.4808 243.294 36.585 243.652 35.6891C243.831 35.3307 243.831 35.1516 244.01 34.7932C244.01 34.4349 244.189 34.2557 244.189 33.8974C244.189 33.7182 244.189 33.3598 244.01 33.1806C243.831 33.1806 243.831 33.1806 243.831 33.1806C242.936 34.614 241.503 35.8683 240.07 36.9433C238.816 38.0183 237.562 39.0934 235.95 39.81C235.412 39.9892 235.054 40.1684 234.517 40.3476C234.159 40.5267 233.8 40.5267 233.442 40.7059C233.263 40.7059 232.905 40.8851 232.726 40.7059C232.367 40.7059 232.367 40.5268 232.367 40.1684C232.367 39.6309 232.726 39.4517 232.905 39.0934C233.263 38.735 233.084 38.0183 233.084 37.66C233.084 37.3016 233.084 36.9433 233.084 36.4058C233.084 36.0474 233.084 35.6891 232.905 35.3307C232.726 34.9724 232.188 34.7932 231.83 34.7932C231.472 34.7932 230.934 34.9724 230.576 34.9724V34.7932C230.576 34.4349 230.755 34.0765 230.755 33.7182C230.755 33.3598 230.755 33.0015 230.576 32.8223C230.397 32.6431 230.218 32.464 230.039 32.2848C229.68 32.1056 229.322 31.9264 228.964 31.7473C228.606 31.5681 228.247 31.3889 227.71 31.3889C227.531 31.3889 227.352 31.3889 227.173 31.3889C227.173 31.9264 227.173 31.9265 226.994 32.1056Z" fill="white"/>
</mask>
<g mask="url(#mask3_413_194)">
<path d="M220.187 31.3889L244.548 32.1056L244.19 45.3644L219.829 44.8269L220.187 31.3889Z" fill="url(#paint3_linear_413_194)"/>
</g>
<mask id="mask4_413_194" style="mask-type:luminance" maskUnits="userSpaceOnUse" x="78" y="31" width="14" height="15">
<path d="M84.77 33.0014C83.8744 33.8973 82.9788 34.7932 82.2623 35.8682C82.0832 36.2265 81.9041 36.4057 81.725 36.7641L81.5458 36.9432C81.3667 36.5849 81.5458 36.2265 81.5458 35.8682C81.5458 35.5098 81.5458 35.1515 81.725 34.7932C81.725 34.4348 81.9041 34.2557 81.725 33.8973C81.5458 33.7181 81.3667 33.7181 81.3667 33.5389C81.0085 33.1806 80.4711 33.0014 80.1128 32.8223H79.9337C79.5755 33.7181 79.3964 34.614 79.2172 35.5099C78.859 37.1224 78.6799 38.9141 78.5007 40.7059C78.5007 41.7809 78.5007 42.6768 79.0381 43.7518C79.2172 44.2893 79.7546 44.6477 80.1128 45.006C81.0085 45.5435 81.9041 45.006 82.2623 44.1102C82.6206 43.3935 82.6206 42.4976 83.1579 41.7809C83.3371 41.4226 83.6953 41.0642 83.8744 40.7059C84.2327 40.1683 84.5909 39.4516 84.9492 38.9141C85.3074 38.3766 85.8448 37.6599 86.203 37.1224C86.7404 36.4057 87.2778 35.689 87.9943 35.1515C88.8899 34.4348 89.7855 33.7181 90.6811 33.1806C91.2185 32.8223 91.5767 32.6431 91.935 32.2847C91.935 32.2847 91.935 32.2847 91.935 32.1056C91.935 31.9264 91.935 31.9264 91.7559 31.7472C91.0394 31.3889 90.502 31.2097 89.7855 31.2097C87.8151 31.0305 86.0239 31.9264 84.77 33.0014Z" fill="white"/>
</mask>
<g mask="url(#mask4_413_194)">
<path d="M77.9634 30.6721L91.935 31.0305L91.5767 45.7226L77.6051 45.3643L77.9634 30.6721Z" fill="url(#paint4_linear_413_194)"/>
</g>
<mask id="mask5_413_194" style="mask-type:luminance" maskUnits="userSpaceOnUse" x="90" y="0" width="28" height="52">
<path d="M98.5623 26.7306C98.5623 26.7306 98.5623 26.5514 98.5623 26.3722C98.5623 26.193 98.5623 26.193 98.7414 26.0139L98.9205 25.2972C99.2788 23.8638 99.8162 22.4304 100.354 20.997C100.354 20.8178 100.712 20.1012 100.712 20.1012C100.891 20.1012 101.07 20.1012 101.249 20.1012L101.07 20.997C100.891 21.7137 100.712 22.4304 100.533 22.9679C100.174 24.2221 99.8161 25.4764 99.2788 26.7306C99.0996 26.7306 99.2788 26.7306 99.2788 26.7306H99.0997C98.7414 26.9098 98.5623 26.9098 98.5623 26.7306C98.5623 26.9098 98.5623 26.7306 98.5623 26.7306ZM97.6667 26.1931C97.4875 26.0139 97.4875 26.0139 97.6667 25.8347C97.6667 25.4764 97.8458 25.2972 97.8458 24.9388C98.0249 24.043 98.204 23.3263 98.3832 22.4304C98.5623 21.7137 98.7414 20.997 99.0997 20.2803C99.4579 20.2803 99.637 20.2803 99.9953 20.2803L99.637 21.5345C99.4579 21.8929 99.4579 22.4304 99.2788 22.7887C99.0996 23.6846 98.7414 24.4013 98.5623 25.2972C98.5623 25.4764 98.3832 25.6555 98.3832 25.8347C98.3832 26.0139 98.3832 26.1931 98.204 26.1931C97.8458 26.3722 97.6667 26.1931 97.6667 26.1931ZM101.428 17.5927C101.428 17.4136 101.966 15.2635 101.966 15.0843C102.324 13.1134 102.861 11.3217 103.219 9.35077L103.936 5.9465C104.294 7.20071 103.936 8.63409 103.757 9.8883C103.399 11.1425 103.04 12.5759 102.861 13.8301C102.682 14.9051 102.324 15.9802 102.145 17.2344C102.145 17.4136 102.145 17.4136 102.145 17.4136L101.966 17.5927C101.786 17.5927 101.607 17.5927 101.428 17.5927ZM99.637 16.5177C99.637 16.3385 99.637 16.1594 99.8161 15.9802C100.354 13.2926 101.249 10.605 101.966 7.91741C102.145 7.20072 102.324 6.30485 102.503 5.58815C102.503 5.22981 102.861 4.15478 103.219 4.33395C103.399 4.33395 103.399 4.33395 103.399 4.33395C103.219 5.05064 103.04 5.58814 102.861 6.30484C102.682 7.02153 102.503 7.73821 102.324 8.45491C101.966 9.88829 101.607 11.3217 101.428 12.7551C101.249 13.4718 101.07 14.3676 100.891 15.0843C100.891 15.2635 100.533 17.4136 100.354 17.4136C99.9953 17.4136 99.637 17.4136 99.2788 17.4136C99.637 17.5927 99.637 16.6969 99.637 16.5177ZM103.219 0.750488C101.966 1.10883 101.428 2.18386 101.07 3.2589C100.533 4.69228 99.9953 5.94648 99.637 7.55904C99.2788 9.1716 98.9205 10.7842 98.5623 12.3967C98.204 14.0093 97.8458 15.6218 97.4875 17.0552C97.3084 17.5927 96.9502 17.7719 96.4128 17.9511C95.5172 18.1303 94.4424 18.1303 93.3677 18.1303C92.6512 18.1303 91.7556 18.1303 91.0391 18.6678C90.5017 19.0261 90.3226 19.5636 90.5017 20.1012C90.6809 20.997 91.3973 21.1762 91.5765 21.1762C91.7556 21.1762 93.3677 20.997 94.0842 20.997C94.2633 20.997 96.0546 20.6387 96.4128 20.6387C95.159 25.8347 94.0842 31.0307 93.726 36.4059C93.5468 36.5851 93.3677 36.7642 93.3677 37.1226C93.1886 37.3018 93.1886 37.4809 93.3677 37.6601C93.3677 37.8393 93.5468 37.8393 93.726 38.0185C93.9051 38.1976 93.726 38.9143 93.726 39.0935C93.726 39.631 93.5468 40.3477 93.5468 40.8852C93.3677 42.8561 93.1886 44.827 93.5468 46.798C94.0842 48.948 95.3381 51.6356 97.8458 51.8148C98.3831 51.8148 98.204 51.2773 97.8458 51.0981C96.5919 50.2022 96.2337 48.5897 96.0545 47.1563C95.8754 45.9021 95.8754 44.4687 95.8754 43.2145C95.8754 41.9603 95.8754 40.7061 96.0545 39.631C96.2337 38.7352 96.5919 38.0185 97.1293 37.1226C97.6667 36.2267 98.0249 35.1517 98.3832 34.0767C98.9205 32.6433 99.4579 31.0307 99.9953 29.5973C100.891 26.5514 101.787 23.5055 102.503 20.4595C102.503 20.2803 103.399 20.4595 103.578 20.4595C104.115 20.4595 104.652 20.4595 105.369 20.4595C106.802 20.4595 108.235 20.2803 109.668 20.2803C110.922 20.2803 112.176 20.1012 113.609 20.1012C114.325 20.1012 115.042 20.1012 115.758 20.1012C116.116 20.1012 116.475 20.1012 116.833 20.1012H117.012C117.191 20.1012 117.549 20.1012 117.728 20.1012C117.908 19.922 117.908 19.7428 117.908 19.7428C117.728 19.3845 117.191 19.2053 116.833 19.2053C116.295 19.0261 115.758 18.847 115.221 18.6678C113.967 18.3094 112.534 18.1303 111.101 17.9511C109.668 17.9511 108.235 17.7719 106.802 17.7719C105.727 17.7719 104.832 17.7719 103.757 17.7719H103.399C103.936 16.3385 104.294 14.9051 104.652 13.4718C105.011 11.8592 105.369 10.2466 105.727 8.63409C106.085 7.02153 106.085 5.40898 105.906 3.79642C105.727 2.54221 105.19 1.10882 103.757 0.929645C103.399 0.750472 103.399 0.750488 103.219 0.750488C103.399 0.750488 103.219 0.750488 103.219 0.750488Z" fill="white"/>
</mask>
<g mask="url(#mask5_413_194)">
<path d="M90.3222 0.0336914L118.803 0.7504L117.549 52.5314L89.0684 51.8147L90.3222 0.0336914Z" fill="url(#paint5_linear_413_194)"/>
</g>
<mask id="mask6_413_194" style="mask-type:luminance" maskUnits="userSpaceOnUse" x="175" y="0" width="28" height="52">
<path d="M183.467 26.7306C183.467 26.7306 183.467 26.5514 183.467 26.3722C183.467 26.193 183.467 26.193 183.646 26.0139C183.646 25.8347 183.825 25.4764 183.825 25.2972C184.183 23.8638 184.72 22.4304 185.258 20.997C185.258 20.8178 185.616 20.1012 185.616 20.1012C185.795 20.1012 185.974 20.1012 186.153 20.1012L185.974 20.997C185.795 21.7137 185.616 22.4304 185.437 22.9679C185.079 24.2221 184.72 25.4764 184.183 26.7306C184.004 26.7306 184.183 26.7306 184.183 26.7306H184.004C183.467 26.9098 183.467 26.9098 183.467 26.7306C183.467 26.9098 183.467 26.7306 183.467 26.7306ZM182.392 26.1931C182.213 26.0139 182.213 26.0139 182.392 25.8347C182.392 25.4764 182.571 25.2972 182.571 24.9388C182.75 24.043 182.929 23.3263 183.108 22.4304C183.287 21.7137 183.467 20.997 183.825 20.2803C184.183 20.2803 184.362 20.2803 184.72 20.2803L184.362 21.5345C184.183 21.8929 184.183 22.4304 184.004 22.7887C183.825 23.6846 183.467 24.4013 183.287 25.2972C183.287 25.4764 183.108 25.6555 183.108 25.8347C183.108 26.0139 183.108 26.1931 182.929 26.1931C182.75 26.3722 182.571 26.1931 182.392 26.1931ZM186.153 17.5927C186.153 17.4136 186.691 15.2635 186.691 15.0843C187.049 13.1134 187.586 11.3217 187.945 9.35077C188.124 8.27573 188.482 7.02153 188.661 5.9465C189.019 7.20071 188.661 8.63409 188.482 9.8883C188.124 11.1425 187.766 12.5759 187.586 13.8301C187.407 14.9051 187.049 15.9802 186.87 17.2344C186.87 17.4136 186.87 17.4136 186.87 17.4136L186.691 17.5927C186.512 17.5927 186.512 17.5927 186.153 17.5927C186.333 17.5927 186.333 17.5927 186.153 17.5927ZM184.541 16.5177C184.541 16.3385 184.541 16.1594 184.72 15.9802C185.258 13.2926 186.153 10.605 186.87 7.91741C187.049 7.20072 187.228 6.30485 187.407 5.58815C187.407 5.22981 187.766 4.15478 188.124 4.33395C188.303 4.33395 188.303 4.33395 188.303 4.33395C188.124 5.05064 187.945 5.58814 187.766 6.30484C187.586 7.02153 187.407 7.73821 187.228 8.45491C186.87 9.88829 186.512 11.3217 186.333 12.7551C186.153 13.4718 185.974 14.3676 185.795 15.0843C185.795 15.2635 185.437 17.4136 185.258 17.4136C184.9 17.4136 184.541 17.4136 184.183 17.4136C184.362 17.5927 184.541 16.6969 184.541 16.5177ZM188.124 0.750488C186.87 1.10883 186.333 2.18386 185.974 3.2589C185.437 4.69228 184.9 5.94648 184.541 7.55904C184.183 9.1716 183.825 10.7842 183.467 12.3967C183.108 14.0093 182.75 15.6218 182.392 17.0552C182.213 17.5927 181.854 17.7719 181.317 17.9511C180.421 18.1303 179.347 18.1303 178.272 18.1303C177.556 18.1303 176.66 18.1303 175.943 18.6678C175.406 19.0261 175.227 19.5636 175.406 20.1012C175.585 20.997 176.302 21.1762 176.481 21.1762C176.66 21.1762 178.272 20.997 178.989 20.997C179.168 20.997 180.959 20.6387 181.317 20.6387C180.063 25.8347 178.989 31.0307 178.63 36.4059C178.451 36.5851 178.272 36.7642 178.272 37.1226C178.093 37.3018 178.093 37.4809 178.272 37.6601C178.272 37.8393 178.451 37.8393 178.63 38.0185C178.809 38.1976 178.63 38.9143 178.63 39.0935C178.63 39.631 178.451 40.3477 178.451 40.8852C178.272 42.8561 178.093 44.827 178.451 46.798C178.988 48.948 180.242 51.6356 182.75 51.8148C183.287 51.8148 183.108 51.2773 182.75 51.0981C181.496 50.2022 181.138 48.5897 180.959 47.1563C180.78 45.9021 180.78 44.4687 180.78 43.2145C180.78 41.9603 180.78 40.7061 180.959 39.631C181.138 38.7352 181.496 38.0185 182.034 37.1226C182.571 36.2267 182.929 35.1517 183.287 34.0767C183.825 32.6433 184.362 31.0307 184.9 29.5973C185.795 26.5514 186.691 23.5055 187.407 20.4595C187.407 20.2803 188.303 20.4595 188.482 20.4595C189.019 20.4595 189.557 20.4595 190.273 20.4595C191.706 20.4595 193.139 20.2803 194.572 20.2803C195.826 20.2803 197.08 20.1012 198.513 20.1012C199.229 20.1012 199.946 20.1012 200.662 20.1012C201.021 20.1012 201.379 20.1012 201.737 20.1012H201.916C202.095 20.1012 202.454 20.1012 202.633 20.1012C202.812 19.922 202.812 19.7428 202.812 19.7428C202.633 19.3845 202.095 19.2053 201.737 19.2053C201.2 19.0261 200.662 18.847 200.125 18.6678C198.871 18.3094 197.438 18.1303 196.005 17.9511C194.572 17.9511 193.139 17.7719 191.706 17.7719C190.632 17.7719 189.736 17.7719 188.661 17.7719H188.303C188.84 16.3385 189.199 14.9051 189.557 13.4718C189.915 11.8592 190.273 10.2466 190.632 8.63409C190.99 7.02153 190.99 5.40898 190.811 3.79642C190.632 2.54221 190.094 1.10882 188.661 0.929645C188.303 0.750472 188.303 0.750488 188.124 0.750488Z" fill="white"/>
</mask>
<g mask="url(#mask6_413_194)">
<path d="M175.227 0.0336914L203.707 0.7504L202.453 52.5314L173.973 51.8147L175.227 0.0336914Z" fill="url(#paint6_linear_413_194)"/>
</g>
<mask id="mask7_413_194" style="mask-type:luminance" maskUnits="userSpaceOnUse" x="103" y="30" width="16" height="15">
<path d="M109.489 33.1808C110.205 32.4641 110.922 31.7474 111.638 31.9265C111.638 31.9265 111.638 31.9266 111.638 32.1057C111.638 32.6433 111.28 33.1807 110.743 33.5391C110.384 33.8974 110.026 34.0766 109.489 34.435C109.31 34.6141 108.951 34.6142 108.772 34.7933C108.593 34.7933 108.056 34.9725 108.056 34.9725C108.593 34.435 108.951 33.7183 109.489 33.1808ZM107.339 32.4641C105.906 33.8975 104.473 35.6892 103.936 37.4809C103.399 39.4518 103.757 42.1394 105.369 43.3936C105.906 43.752 106.623 43.9311 107.339 44.1103C108.235 44.1103 109.131 43.9312 110.026 43.752C111.28 43.3936 112.355 42.6769 113.43 41.9602C114.325 41.4227 115.042 40.706 115.937 40.1685C116.654 39.631 117.37 39.0935 118.087 38.3768C118.266 38.1976 118.445 38.0184 118.624 37.8393C118.624 37.6601 118.803 37.6601 118.803 37.4809C118.803 36.9434 118.266 37.1226 117.908 37.3017C117.37 37.6601 116.833 37.8393 116.296 38.1976C115.042 38.9143 113.788 39.4518 112.534 39.8101C111.28 40.3477 109.847 40.706 108.593 41.0644C108.056 41.2436 107.339 41.2435 106.802 41.2435C106.623 41.2435 106.265 41.2436 106.086 41.0644C105.727 40.8852 105.906 40.5269 105.906 40.1685L106.265 39.8101C106.444 39.631 106.444 39.4518 106.623 39.2727C106.623 39.0935 106.802 38.7351 106.802 38.7351C106.981 38.7351 107.339 38.7351 107.519 38.7351C108.414 38.7351 109.31 38.5559 110.205 38.1976C111.997 37.3017 113.609 35.6892 113.967 33.7183C114.146 32.8224 113.788 31.7474 113.071 31.2099C112.534 30.8515 111.997 30.6723 111.459 30.6723C109.847 30.314 108.414 31.389 107.339 32.4641Z" fill="white"/>
</mask>
<g mask="url(#mask7_413_194)">
<path d="M103.578 29.9556L119.162 30.4931L118.803 44.4686L103.22 43.9311L103.578 29.9556Z" fill="url(#paint7_linear_413_194)"/>
</g>
<mask id="mask8_413_194" style="mask-type:luminance" maskUnits="userSpaceOnUse" x="206" y="31" width="12" height="15">
<path d="M213.381 32.1056C210.156 32.6432 208.007 35.5099 207.111 38.5559C206.574 40.5268 206.216 42.856 208.007 44.4686C208.723 45.0061 209.44 45.3644 210.336 45.3644C211.231 45.3644 212.306 45.0061 213.022 44.4686C214.097 43.7519 214.993 42.856 215.888 41.9602C216.784 41.0643 217.68 39.8101 217.68 38.5559C217.68 38.3767 217.5 38.1975 217.321 38.1975C217.142 38.1975 217.142 38.1975 217.142 38.1975C216.963 38.3767 216.784 38.735 216.426 38.9142C216.067 39.2725 215.709 39.4517 215.351 39.8101C214.814 40.1684 214.276 40.7059 213.56 41.0643C213.022 41.4226 212.306 41.781 211.768 42.1393C211.231 42.3185 210.156 43.0352 209.619 42.6768C209.44 42.4977 209.261 42.1393 209.44 41.781C209.44 41.4226 209.798 41.2435 209.977 40.8851C210.336 40.3476 210.156 39.6309 210.336 38.9142C210.694 37.66 211.589 36.585 212.485 35.6891C213.022 35.1516 213.56 34.7932 214.276 34.4349C214.814 34.2557 215.351 35.1516 215.709 35.3307C215.888 35.3307 215.888 35.5099 216.067 35.5099C216.247 35.5099 216.426 35.5099 216.426 35.3307C216.605 35.1516 216.605 34.7932 216.605 34.4349C216.605 34.2557 216.605 34.0765 216.605 33.8974C216.784 33.3599 216.784 32.8223 216.426 32.2848C215.888 31.7473 215.172 31.5681 214.276 31.5681C213.918 31.9265 213.739 32.1056 213.381 32.1056Z" fill="white"/>
</mask>
<g mask="url(#mask8_413_194)">
<path d="M206.394 31.7473L218.037 31.9265L217.679 45.5437L206.036 45.3645L206.394 31.7473Z" fill="url(#paint8_linear_413_194)"/>
</g>
<mask id="mask9_413_194" style="mask-type:luminance" maskUnits="userSpaceOnUse" x="192" y="25" width="5" height="4">
<path d="M193.498 26.0138C193.319 26.193 193.14 26.193 192.961 26.3721C192.603 26.7305 192.603 27.268 192.782 27.6264C192.961 27.9847 193.319 28.343 193.856 28.343C194.215 28.5222 194.752 28.343 195.11 28.1639C195.648 27.8055 196.006 27.0888 196.006 26.3721C196.006 26.0138 195.827 25.4763 195.648 25.2971C195.469 25.1179 195.289 25.1179 195.11 25.1179C194.394 25.1179 193.856 25.6554 193.498 26.0138Z" fill="white"/>
</mask>
<g mask="url(#mask9_413_194)">
<path d="M192.603 24.9387L196.006 25.1179L195.827 28.5222H192.424L192.603 24.9387Z" fill="url(#paint9_linear_413_194)"/>
</g>
<mask id="mask10_413_194" style="mask-type:luminance" maskUnits="userSpaceOnUse" x="188" y="33" width="20" height="13">
<path d="M190.274 35.1515C189.915 36.2266 189.557 37.1224 189.199 38.1975C188.841 39.0933 188.482 40.1684 188.482 41.2434C188.482 42.856 189.199 44.4685 190.632 45.1852C191.528 45.7227 192.781 45.9019 193.856 45.9019C195.11 45.9019 196.364 45.5436 197.439 45.0061C198.513 44.4685 199.588 43.5727 200.663 42.6768C201.738 41.7809 202.812 41.0642 203.887 40.3475C204.245 40.1684 204.783 39.81 205.141 39.6309C205.32 39.4517 205.678 39.2725 205.678 39.0933C205.857 38.735 205.857 38.5558 206.037 38.1975C206.216 37.8391 206.574 37.6599 206.753 37.3016C207.111 36.9433 207.29 36.5849 207.649 36.2266C207.828 36.0474 207.649 35.8682 207.47 35.6891C207.29 35.5099 207.29 35.5099 207.111 35.6891C204.783 36.9433 202.633 38.1975 200.484 39.81C199.409 40.5267 198.513 41.2434 197.259 41.9601C196.543 42.3185 195.647 42.856 194.752 43.0351C194.035 43.3935 193.14 43.7518 192.244 43.7518C191.528 43.7518 190.811 43.2143 191.348 42.4976C191.528 42.1393 191.707 41.9601 191.886 41.6017C192.065 41.2434 192.065 40.8851 192.244 40.5267C192.423 39.6309 192.602 38.9141 192.961 38.0183C193.14 37.6599 193.14 37.3016 193.319 36.9433C193.319 36.5849 193.498 36.0474 193.856 36.0474C194.035 36.0474 194.214 35.8682 194.214 35.5099C194.214 35.3307 193.856 35.1515 193.677 34.9723C193.14 34.4348 192.602 33.8973 191.707 33.8973C190.99 33.539 190.453 34.614 190.274 35.1515Z" fill="white"/>
</mask>
<g mask="url(#mask10_413_194)">
<path d="M188.662 33.0015L208.007 33.539L207.649 46.4394L188.304 45.9019L188.662 33.0015Z" fill="url(#paint10_linear_413_194)"/>
</g>
<mask id="mask11_413_194" style="mask-type:luminance" maskUnits="userSpaceOnUse" x="161" y="32" width="14" height="13">
<path d="M167.346 35.8684C166.809 35.8684 167.346 35.1517 167.525 34.7934C167.883 34.2558 168.242 33.8975 168.779 33.36C168.958 33.1808 169.137 33.1808 169.137 33.36C169.316 33.5391 169.316 33.7183 169.316 33.8975C169.137 34.2558 168.779 34.7933 168.6 34.9725C168.062 35.51 167.704 35.8684 167.346 35.8684ZM169.675 32.2849C168.958 32.2849 168.242 32.8224 167.704 33.36C166.809 34.2558 166.092 35.1517 165.555 36.2267C165.555 35.8684 165.555 35.51 165.734 35.1517C165.734 34.9725 165.734 34.9725 165.734 34.9725C165.734 34.7933 165.734 34.7933 165.555 34.6142C165.017 34.435 163.764 34.2558 163.405 34.7934C163.226 35.1517 163.047 35.51 163.047 35.8684C162.868 36.4059 162.689 36.7642 162.689 37.3018C162.51 38.1976 162.151 39.0935 161.972 39.9894C161.793 40.706 161.614 41.6019 161.793 42.3186C161.972 43.0353 162.151 43.752 162.868 44.1103C163.584 44.4687 164.122 44.1103 164.659 43.5728C166.092 42.4978 166.809 41.0644 167.704 39.631C168.242 38.7352 168.6 37.8393 169.137 36.9434C169.495 36.4059 169.675 36.0476 170.033 35.51C170.212 35.3309 170.391 34.7933 170.749 34.6142C170.928 34.7933 170.928 36.9434 170.928 37.3018C170.928 38.1976 170.928 39.0935 170.749 40.1685C170.749 40.5269 170.749 40.8852 170.928 41.2436C171.108 41.6019 171.287 41.9603 171.645 42.1394C172.182 42.6769 172.899 42.677 173.615 42.8561C173.794 42.8561 173.794 42.8561 173.974 42.677C174.153 42.4978 174.153 42.3186 173.974 42.1394C173.794 41.7811 173.436 41.6019 173.257 41.2436C173.078 40.8852 173.257 40.3477 173.257 39.8102C173.257 38.9143 173.436 38.1976 173.615 37.3018C173.794 35.6892 173.436 34.2558 172.003 33.36C171.108 32.6433 170.391 32.2849 169.675 32.2849Z" fill="white"/>
</mask>
<g mask="url(#mask11_413_194)">
<path d="M161.435 31.9265L174.152 32.2849L173.794 44.4686L161.076 44.1103L161.435 31.9265Z" fill="url(#paint11_linear_413_194)"/>
</g>
<defs>
<linearGradient id="paint0_linear_413_194" x1="-5.26398" y1="24.709" x2="245.47" y2="30.8813" gradientUnits="userSpaceOnUse">
<stop stop-color="#F1C486"/>
<stop offset="0.0265466" stop-color="#F1C486"/>
<stop offset="0.0568707" stop-color="#D8AD74"/>
<stop offset="0.1187" stop-color="#B28A5C"/>
<stop offset="0.1752" stop-color="#9D774E"/>
<stop offset="0.221" stop-color="#96714A"/>
<stop offset="0.5559" stop-color="#DEB37A"/>
<stop offset="0.6382" stop-color="#F1C486"/>
<stop offset="0.9255" stop-color="#96714A"/>
<stop offset="1" stop-color="#96714A"/>
</linearGradient>
<linearGradient id="paint1_linear_413_194" x1="-5.55715" y1="36.6287" x2="245.177" y2="42.801" gradientUnits="userSpaceOnUse">
<stop stop-color="#F1C486"/>
<stop offset="0.0265466" stop-color="#F1C486"/>
<stop offset="0.0568707" stop-color="#D8AD74"/>
<stop offset="0.1187" stop-color="#B28A5C"/>
<stop offset="0.1752" stop-color="#9D774E"/>
<stop offset="0.221" stop-color="#96714A"/>
<stop offset="0.5559" stop-color="#DEB37A"/>
<stop offset="0.6382" stop-color="#F1C486"/>
<stop offset="0.9255" stop-color="#96714A"/>
<stop offset="1" stop-color="#96714A"/>
</linearGradient>
<linearGradient id="paint2_linear_413_194" x1="-5.50557" y1="34.5745" x2="245.229" y2="40.7468" gradientUnits="userSpaceOnUse">
<stop stop-color="#F1C486"/>
<stop offset="0.0265466" stop-color="#F1C486"/>
<stop offset="0.0568707" stop-color="#D8AD74"/>
<stop offset="0.1187" stop-color="#B28A5C"/>
<stop offset="0.1752" stop-color="#9D774E"/>
<stop offset="0.221" stop-color="#96714A"/>
<stop offset="0.5559" stop-color="#DEB37A"/>
<stop offset="0.6382" stop-color="#F1C486"/>
<stop offset="0.9255" stop-color="#96714A"/>
<stop offset="1" stop-color="#96714A"/>
</linearGradient>
<linearGradient id="paint3_linear_413_194" x1="-5.45615" y1="32.5448" x2="245.278" y2="38.7171" gradientUnits="userSpaceOnUse">
<stop stop-color="#F1C486"/>
<stop offset="0.0265466" stop-color="#F1C486"/>
<stop offset="0.0568707" stop-color="#D8AD74"/>
<stop offset="0.1187" stop-color="#B28A5C"/>
<stop offset="0.1752" stop-color="#9D774E"/>
<stop offset="0.221" stop-color="#96714A"/>
<stop offset="0.5559" stop-color="#DEB37A"/>
<stop offset="0.6382" stop-color="#F1C486"/>
<stop offset="0.9255" stop-color="#96714A"/>
<stop offset="1" stop-color="#96714A"/>
</linearGradient>
<linearGradient id="paint4_linear_413_194" x1="-5.54224" y1="36.0332" x2="245.193" y2="42.2055" gradientUnits="userSpaceOnUse">
<stop stop-color="#F1C486"/>
<stop offset="0.0265466" stop-color="#F1C486"/>
<stop offset="0.0568707" stop-color="#D8AD74"/>
<stop offset="0.1187" stop-color="#B28A5C"/>
<stop offset="0.1752" stop-color="#9D774E"/>
<stop offset="0.221" stop-color="#96714A"/>
<stop offset="0.5559" stop-color="#DEB37A"/>
<stop offset="0.6382" stop-color="#F1C486"/>
<stop offset="0.9255" stop-color="#96714A"/>
<stop offset="1" stop-color="#96714A"/>
</linearGradient>
<linearGradient id="paint5_linear_413_194" x1="-5.23724" y1="23.6294" x2="245.497" y2="29.8017" gradientUnits="userSpaceOnUse">
<stop stop-color="#F1C486"/>
<stop offset="0.0265466" stop-color="#F1C486"/>
<stop offset="0.0568707" stop-color="#D8AD74"/>
<stop offset="0.1187" stop-color="#B28A5C"/>
<stop offset="0.1752" stop-color="#9D774E"/>
<stop offset="0.221" stop-color="#96714A"/>
<stop offset="0.5559" stop-color="#DEB37A"/>
<stop offset="0.6382" stop-color="#F1C486"/>
<stop offset="0.9255" stop-color="#96714A"/>
<stop offset="1" stop-color="#96714A"/>
</linearGradient>
<linearGradient id="paint6_linear_413_194" x1="-5.1862" y1="21.5367" x2="245.548" y2="27.709" gradientUnits="userSpaceOnUse">
<stop stop-color="#F1C486"/>
<stop offset="0.0265466" stop-color="#F1C486"/>
<stop offset="0.0568707" stop-color="#D8AD74"/>
<stop offset="0.1187" stop-color="#B28A5C"/>
<stop offset="0.1752" stop-color="#9D774E"/>
<stop offset="0.221" stop-color="#96714A"/>
<stop offset="0.5559" stop-color="#DEB37A"/>
<stop offset="0.6382" stop-color="#F1C486"/>
<stop offset="0.9255" stop-color="#96714A"/>
<stop offset="1" stop-color="#96714A"/>
</linearGradient>
<linearGradient id="paint7_linear_413_194" x1="-5.50046" y1="34.3355" x2="245.234" y2="40.5078" gradientUnits="userSpaceOnUse">
<stop stop-color="#F1C486"/>
<stop offset="0.0265466" stop-color="#F1C486"/>
<stop offset="0.0568707" stop-color="#D8AD74"/>
<stop offset="0.1187" stop-color="#B28A5C"/>
<stop offset="0.1752" stop-color="#9D774E"/>
<stop offset="0.221" stop-color="#96714A"/>
<stop offset="0.5559" stop-color="#DEB37A"/>
<stop offset="0.6382" stop-color="#F1C486"/>
<stop offset="0.9255" stop-color="#96714A"/>
<stop offset="1" stop-color="#96714A"/>
</linearGradient>
<linearGradient id="paint8_linear_413_194" x1="-5.47506" y1="33.2938" x2="245.259" y2="39.4661" gradientUnits="userSpaceOnUse">
<stop stop-color="#F1C486"/>
<stop offset="0.0265466" stop-color="#F1C486"/>
<stop offset="0.0568707" stop-color="#D8AD74"/>
<stop offset="0.1187" stop-color="#B28A5C"/>
<stop offset="0.1752" stop-color="#9D774E"/>
<stop offset="0.221" stop-color="#96714A"/>
<stop offset="0.5559" stop-color="#DEB37A"/>
<stop offset="0.6382" stop-color="#F1C486"/>
<stop offset="0.9255" stop-color="#96714A"/>
<stop offset="1" stop-color="#96714A"/>
</linearGradient>
<linearGradient id="paint9_linear_413_194" x1="-5.19248" y1="21.8539" x2="245.542" y2="28.0262" gradientUnits="userSpaceOnUse">
<stop stop-color="#F1C486"/>
<stop offset="0.0265466" stop-color="#F1C486"/>
<stop offset="0.0568707" stop-color="#D8AD74"/>
<stop offset="0.1187" stop-color="#B28A5C"/>
<stop offset="0.1752" stop-color="#9D774E"/>
<stop offset="0.221" stop-color="#96714A"/>
<stop offset="0.5559" stop-color="#DEB37A"/>
<stop offset="0.6382" stop-color="#F1C486"/>
<stop offset="0.9255" stop-color="#96714A"/>
<stop offset="1" stop-color="#96714A"/>
</linearGradient>
<linearGradient id="paint10_linear_413_194" x1="-5.50952" y1="34.739" x2="245.225" y2="40.9113" gradientUnits="userSpaceOnUse">
<stop stop-color="#F1C486"/>
<stop offset="0.0265466" stop-color="#F1C486"/>
<stop offset="0.0568707" stop-color="#D8AD74"/>
<stop offset="0.1187" stop-color="#B28A5C"/>
<stop offset="0.1752" stop-color="#9D774E"/>
<stop offset="0.221" stop-color="#96714A"/>
<stop offset="0.5559" stop-color="#DEB37A"/>
<stop offset="0.6382" stop-color="#F1C486"/>
<stop offset="0.9255" stop-color="#96714A"/>
<stop offset="1" stop-color="#96714A"/>
</linearGradient>
<linearGradient id="paint11_linear_413_194" x1="-5.49073" y1="33.9388" x2="245.244" y2="40.1111" gradientUnits="userSpaceOnUse">
<stop stop-color="#F1C486"/>
<stop offset="0.0265466" stop-color="#F1C486"/>
<stop offset="0.0568707" stop-color="#D8AD74"/>
<stop offset="0.1187" stop-color="#B28A5C"/>
<stop offset="0.1752" stop-color="#9D774E"/>
<stop offset="0.221" stop-color="#96714A"/>
<stop offset="0.5559" stop-color="#DEB37A"/>
<stop offset="0.6382" stop-color="#F1C486"/>
<stop offset="0.9255" stop-color="#96714A"/>
<stop offset="1" stop-color="#96714A"/>
</linearGradient>
</defs>
</svg>
